<svg xmlns="http://www.w3.org/2000/svg" xmlns:xlink="http://www.w3.org/1999/xlink" width="816" zoomAndPan="magnify" viewBox="0 0 612 611.999999" height="816" preserveAspectRatio="xMidYMid meet" version="1.0"><defs><clipPath id="edd34a3dc2"><path d="M 482 253 L 560 253 L 560 350 L 482 350 Z M 482 253 " clip-rule="nonzero"/></clipPath><clipPath id="4d79f668f6"><path d="M 486.164062 251.417969 L 561.613281 254.648438 L 557.425781 352.367188 L 481.976562 349.136719 Z M 486.164062 251.417969 " clip-rule="nonzero"/></clipPath><clipPath id="08e58d1ddf"><path d="M 501.726562 253.265625 C 507.84375 253.644531 515.636719 252.816406 521.078125 255.878906 C 521.417969 258.832031 520.003906 262.132812 519.292969 265 C 518.09375 269.835938 515.5 273.425781 517.199219 278.570312 C 519.828125 276.917969 522.417969 274.867188 525.296875 273.691406 C 529.015625 272.457031 533.378906 273.078125 537.28125 273.160156 C 542.234375 273.449219 546.84375 273.074219 551.40625 275.351562 C 555.230469 277.058594 557.769531 280.472656 559.246094 284.285156 C 560.125 289.296875 559.261719 294.058594 557.644531 298.808594 C 556.320312 303.898438 555.625 309.113281 553.992188 314.140625 C 551.28125 324.058594 549.515625 334.246094 546.679688 344.140625 C 547.65625 345.972656 548.625 347.828125 549.523438 349.707031 C 543.324219 349.78125 536.328125 350.394531 530.441406 348.191406 C 530.277344 340.730469 533.253906 334.585938 534.839844 327.480469 C 536.222656 321.40625 538.242188 315.480469 539.558594 309.382812 C 540.757812 303.820312 542.875 298.960938 542.667969 293.125 C 543.027344 290.4375 540.121094 287.886719 537.597656 287.730469 C 532.4375 287.316406 527.238281 287.25 522.058594 287.035156 C 518.792969 286.847656 515.304688 287.929688 513.222656 290.566406 C 512.152344 292.234375 511.816406 294.480469 511.335938 296.378906 C 507.597656 311.476562 503.535156 326.433594 500.132812 341.632812 C 499.746094 344.066406 499.90625 346.644531 499.878906 349.105469 C 494.371094 348.691406 488.15625 349.367188 482.914062 347.503906 C 483.078125 344.855469 483.132812 342.027344 483.707031 339.445312 C 487.320312 326.378906 490.550781 313.1875 493.644531 299.992188 C 496.785156 288.53125 498.746094 276.867188 501.953125 265.414062 C 503.109375 261.234375 502.925781 257.410156 501.726562 253.265625 Z M 501.726562 253.265625 " clip-rule="nonzero"/></clipPath><clipPath id="a9bbf7881d"><path d="M 378 250 L 417 250 L 417 349 L 378 349 Z M 378 250 " clip-rule="nonzero"/></clipPath><clipPath id="2f1b7665c4"><path d="M 381.582031 249.554688 L 418.339844 251.128906 L 414.109375 349.894531 L 377.351562 348.320312 Z M 381.582031 249.554688 " clip-rule="nonzero"/></clipPath><clipPath id="19905ee501"><path d="M 396.421875 250.675781 C 403.042969 250.863281 409.6875 251.164062 416.296875 251.679688 C 416.671875 254.003906 417.390625 255.992188 416.660156 258.355469 C 412.097656 274.601562 408.039062 291.023438 403.964844 307.40625 C 400.75 318.871094 398.53125 330.609375 394.972656 341.953125 C 396.246094 343.675781 397.5 345.40625 398.722656 347.15625 C 393.511719 348.484375 388.429688 348.488281 383.109375 347.824219 C 381.53125 347.535156 379.726562 346.933594 378.59375 345.742188 C 377.804688 339.039062 381.011719 332.476562 382.566406 325.816406 C 384.46875 317.191406 387.546875 308.949219 389.003906 300.21875 C 391.691406 289.109375 393.921875 277.953125 396.570312 266.839844 C 397.277344 263.699219 398.71875 260.398438 398.71875 257.171875 C 398.3125 254.953125 397.113281 252.828125 396.421875 250.675781 Z M 396.421875 250.675781 " clip-rule="nonzero"/></clipPath><clipPath id="5c71089854"><path d="M 333 249 L 354 249 L 354 266 L 333 266 Z M 333 249 " clip-rule="nonzero"/></clipPath><clipPath id="601e77a47c"><path d="M 333.195312 248.007812 L 354.476562 248.917969 L 353.714844 266.6875 L 332.433594 265.773438 Z M 333.195312 248.007812 " clip-rule="nonzero"/></clipPath><clipPath id="7ae98fdf5d"><path d="M 341.570312 249.179688 C 345.957031 249.316406 349.886719 248.738281 353.722656 251.289062 C 353.429688 255.609375 353.148438 259.746094 350.292969 263.257812 C 348.25 265.945312 343.757812 265.539062 340.800781 265.371094 C 337.636719 265.238281 334.824219 264.070312 333.75 260.882812 C 333.675781 257.476562 334.84375 253.941406 336.121094 250.816406 C 337.59375 249.65625 339.726562 249.214844 341.570312 249.179688 Z M 341.570312 249.179688 " clip-rule="nonzero"/></clipPath><clipPath id="dd798b621a"><path d="M 345 249 L 385 249 L 385 347 L 345 347 Z M 345 249 " clip-rule="nonzero"/></clipPath><clipPath id="7c16003c73"><path d="M 348.648438 249.191406 L 385.40625 250.765625 L 381.199219 349.007812 L 344.441406 347.433594 Z M 348.648438 249.191406 " clip-rule="nonzero"/></clipPath><clipPath id="76bb80b348"><path d="M 363.871094 249.949219 C 370.808594 250.226562 377.753906 250.554688 384.679688 250.898438 C 384.628906 255.335938 384.601562 259.582031 383.121094 263.820312 C 379.632812 274.65625 378.0625 285.917969 374.652344 296.757812 C 371.042969 309.921875 368.449219 323.253906 364.628906 336.351562 C 363.644531 340.089844 365.304688 342.757812 366.488281 346.152344 C 362.5 345.972656 358.738281 346.054688 354.777344 346.4375 C 351.980469 346.328125 349.160156 347.195312 347.296875 344.554688 C 345.222656 342.507812 345.722656 340.308594 346.402344 337.789062 C 350.367188 324.660156 353.523438 311.195312 357.074219 297.941406 C 360.035156 284.488281 363.023438 271.09375 366.445312 257.746094 C 367.464844 255.183594 364.730469 252.292969 363.871094 249.949219 Z M 363.871094 249.949219 " clip-rule="nonzero"/></clipPath><clipPath id="aea92d854a"><path d="M 51 243 L 174 243 L 174 343 L 51 343 Z M 51 243 " clip-rule="nonzero"/></clipPath><clipPath id="3c31401d2a"><path d="M 55.425781 239.773438 L 174.402344 244.871094 L 170.082031 345.726562 L 51.105469 340.628906 Z M 55.425781 239.773438 " clip-rule="nonzero"/></clipPath><clipPath id="2dddcc4b39"><path d="M 149.464844 244.886719 C 152.152344 244.808594 154.855469 245.097656 157.539062 245.183594 C 163.183594 245.503906 168.375 244.941406 173.59375 247.578125 C 173.554688 253.488281 171.476562 258.574219 170.144531 264.265625 C 166.035156 281.453125 161.722656 299.074219 157.488281 316.234375 C 155.976562 322.558594 153.34375 329.046875 153.058594 335.539062 C 152.65625 337.875 155.289062 339.054688 156.699219 340.53125 C 156.75 340.96875 156.789062 341.417969 156.828125 341.855469 C 150.953125 342.988281 144.71875 342.617188 138.773438 342.207031 C 136.605469 342.121094 134.992188 341.066406 133.828125 339.289062 C 133.539062 338.183594 133.824219 336.875 134.066406 335.789062 C 137.3125 322.222656 140.914062 308.75 144.257812 295.203125 C 144.914062 293.195312 143.941406 291.894531 143.167969 290.117188 C 136.175781 298.785156 130.152344 308.308594 123.820312 317.449219 C 119.019531 323.890625 114.609375 330.605469 110.449219 337.484375 C 109.25 339.226562 108.160156 341.378906 105.75 341.449219 C 101.242188 341.527344 96.714844 341.082031 92.210938 340.9375 C 89.570312 331.597656 88.722656 321.964844 86.398438 312.558594 C 84.324219 304.222656 82.785156 295.789062 80.769531 287.445312 C 79.820312 287.121094 78.875 286.800781 77.941406 286.480469 C 75.808594 291.664062 75.351562 297.15625 73.621094 302.445312 C 71.738281 308.808594 70.585938 315.351562 68.617188 321.695312 C 67.480469 325.863281 66.601562 330.34375 66.792969 334.671875 C 67.738281 336.828125 69.210938 338.683594 70.035156 340.917969 C 64.375 341.113281 58.683594 340.703125 53.019531 340.492188 C 52.441406 338.835938 51.265625 336.925781 51.4375 335.160156 C 56.058594 316.4375 60.636719 299.359375 65.171875 280.824219 C 66.1875 275.023438 67.652344 269.335938 68.964844 263.605469 C 70.097656 259.109375 71.65625 254.175781 71.585938 249.519531 C 70.363281 247.273438 68.320312 245.421875 66.726562 243.425781 C 73.417969 243.324219 80.105469 244.039062 86.808594 244.160156 C 89.011719 244.082031 90.511719 245.519531 91.3125 247.445312 C 92.546875 250.503906 93.144531 253.980469 93.636719 257.238281 C 96.363281 272.777344 99.675781 288.1875 102.324219 303.742188 C 103.375 308.011719 103.546875 313.003906 105.640625 316.890625 C 109.039062 317.648438 109.847656 314.824219 111.597656 312.660156 C 116.210938 305.644531 121.4375 299.054688 125.910156 291.945312 C 131.144531 283.816406 136.820312 275.992188 141.753906 267.664062 C 144.382812 263.09375 147.660156 258.980469 150.46875 254.535156 C 152.359375 250.914062 150.382812 248.347656 149.464844 244.886719 Z M 149.464844 244.886719 " clip-rule="nonzero"/></clipPath><clipPath id="b98236d7c1"><path d="M 411 271 L 483 271 L 483 350 L 411 350 Z M 411 271 " clip-rule="nonzero"/></clipPath><clipPath id="adf9e5618f"><path d="M 412.71875 269.210938 L 484.300781 272.277344 L 480.898438 351.707031 L 409.316406 348.640625 Z M 412.71875 269.210938 " clip-rule="nonzero"/></clipPath><clipPath id="dd6ecb8826"><path d="M 426.714844 271.234375 C 432.878906 271.003906 439.070312 271.925781 445.269531 271.648438 C 452.113281 271.195312 458.769531 271.910156 465.628906 272.027344 C 468.9375 272.113281 471.980469 272.203125 474.816406 274.128906 C 479.4375 277.050781 482.238281 281.617188 482.910156 287.027344 C 483.125 290.117188 482.03125 292.582031 481.199219 295.484375 C 478.933594 302.65625 477.175781 310.007812 475.667969 317.367188 C 473.800781 325.21875 471.699219 333.035156 469.863281 340.878906 C 469.125 343.832031 471.207031 345.695312 472.519531 348.117188 C 466.140625 350.839844 457.871094 349.039062 451.558594 346.792969 C 452.445312 342.828125 452.863281 338.78125 452.9375 334.722656 C 447.746094 336.914062 446.664062 344.273438 441.234375 346.84375 C 435.511719 349.175781 428.695312 349.214844 422.71875 347.96875 C 416.855469 347.019531 412.316406 341.707031 411.257812 336.042969 C 410.414062 327.902344 412.808594 320.890625 415.429688 313.363281 C 417.363281 308.238281 420.636719 303.765625 425.847656 301.644531 C 427.871094 301.03125 430.222656 301.328125 432.316406 301.339844 C 440.101562 301.796875 447.898438 301.695312 455.671875 302.378906 C 460.667969 303.367188 464.367188 298.070312 464.355469 293.5625 C 464.929688 290.339844 462.632812 286.769531 459.175781 286.84375 C 452.730469 286.363281 446.257812 286.367188 439.804688 286.042969 C 435.695312 285.808594 430.800781 286.035156 426.953125 284.464844 C 426.191406 283.464844 425.917969 282.609375 425.949219 281.351562 C 425.996094 277.988281 426.191406 274.554688 426.714844 271.234375 Z M 426.714844 271.234375 " clip-rule="nonzero"/></clipPath><clipPath id="7177b6e0bf"><path d="M 314 268 L 350 268 L 350 347 L 314 347 Z M 314 268 " clip-rule="nonzero"/></clipPath><clipPath id="b91bb86c63"><path d="M 316.867188 267.203125 L 350.722656 268.652344 L 347.34375 347.558594 L 313.488281 346.109375 Z M 316.867188 267.203125 " clip-rule="nonzero"/></clipPath><clipPath id="0df96ac07e"><path d="M 328.558594 268.269531 C 334.144531 268.46875 339.917969 268.347656 345.417969 269.320312 C 347.449219 269.671875 349.75 270.691406 349.484375 273.121094 C 348.316406 280.679688 345.863281 288.136719 343.964844 295.539062 C 342.375 302.1875 340.617188 308.8125 338.964844 315.449219 C 337.332031 322.988281 334.101562 330.757812 333.964844 338.496094 C 333.796875 341.476562 335.132812 343.832031 336.039062 346.640625 C 330.984375 346.53125 325.886719 346.480469 320.859375 345.953125 C 318.878906 345.597656 316.15625 344.859375 315.003906 343.046875 C 314.507812 340.835938 315.113281 338.253906 315.660156 336.09375 C 318.214844 326.480469 320.949219 316.945312 323.089844 307.226562 C 324.558594 301.726562 326.1875 296.242188 327.394531 290.660156 C 328.390625 285.75 330.316406 281.335938 330.339844 276.226562 C 330.671875 273.226562 329.292969 271.054688 328.558594 268.269531 Z M 328.558594 268.269531 " clip-rule="nonzero"/></clipPath><clipPath id="8bc860dee4"><path d="M 168 265 L 239 265 L 239 344 L 168 344 Z M 168 265 " clip-rule="nonzero"/></clipPath><clipPath id="84a5483877"><path d="M 169.726562 263.515625 L 241.308594 266.582031 L 237.925781 345.488281 L 166.347656 342.421875 Z M 169.726562 263.515625 " clip-rule="nonzero"/></clipPath><clipPath id="d3d9cc3042"><path d="M 206.996094 265.757812 C 214.585938 265.722656 223.886719 266.964844 229.582031 272.542969 C 235.863281 278.171875 239.890625 287.300781 237.84375 295.722656 C 236.988281 299.449219 236.074219 303.820312 232.753906 306.179688 C 229.839844 308.078125 226.246094 309.214844 222.75 308.898438 C 211.054688 308.320312 199.351562 308.148438 187.664062 307.4375 C 186.042969 309.710938 184.617188 311.367188 185.324219 314.355469 C 186.558594 318.527344 190.007812 324.015625 194.824219 324.28125 C 201.222656 324.921875 207.6875 324.742188 214.105469 325.164062 C 220.246094 325.6875 226.191406 323.140625 231.453125 320.226562 C 229.4375 325.617188 228.566406 331.472656 226.925781 336.964844 C 226.597656 338.289062 225.675781 338.988281 224.472656 339.5 C 221.179688 340.832031 217.523438 341.480469 214.058594 342.261719 C 207.773438 343.980469 200.550781 342.855469 194.003906 342.730469 C 188.046875 343.085938 182.558594 338.867188 178.277344 335.15625 C 172.515625 329.972656 170.640625 323.050781 169.183594 315.707031 C 168.296875 311.714844 170.210938 307.085938 170.914062 303.09375 C 171.867188 297.425781 173.453125 291.871094 175.339844 286.453125 C 177.722656 279.9375 182.488281 274.855469 188.121094 270.960938 C 193.398438 267.289062 200.71875 266.292969 206.996094 265.757812 Z M 206.996094 265.757812 " clip-rule="nonzero"/></clipPath><clipPath id="d24e12d023"><path d="M 237 268 L 316 268 L 316 367 L 237 367 Z M 237 268 " clip-rule="nonzero"/></clipPath><clipPath id="e705e05cfb"><path d="M 240.382812 265.496094 L 317.769531 268.8125 L 313.492188 368.621094 L 236.109375 365.304688 Z M 240.382812 265.496094 " clip-rule="nonzero"/></clipPath><clipPath id="6970dfeae4"><path d="M 288.375 268.128906 C 294.441406 268.425781 300.707031 268.367188 306.675781 269.496094 C 310.496094 270.179688 313.929688 272.171875 315.4375 275.898438 C 316.347656 282.015625 315.003906 287.359375 313.398438 293.164062 C 311.691406 302.027344 309.285156 310.667969 306.789062 319.332031 C 304.113281 328.632812 302.566406 338.511719 298.984375 347.496094 C 294.738281 357.921875 284.785156 364.183594 274.035156 366.195312 C 269.046875 366.582031 263.953125 365.964844 258.957031 365.878906 C 252.347656 365.816406 246.101562 363.4375 240.148438 360.777344 C 238.984375 360.128906 236.863281 359.183594 237.359375 357.519531 C 238.148438 353.082031 239.613281 348.773438 240.492188 344.34375 C 245.664062 347.386719 250.734375 349.890625 256.734375 350.804688 C 264.53125 351.632812 272.570312 352.472656 279.449219 347.949219 C 283.933594 345.109375 285.148438 339.859375 286.5625 335.089844 C 287.222656 332.878906 286.746094 330.863281 286.382812 328.65625 C 280.90625 331.613281 280.277344 337.476562 275.636719 341.078125 C 271.554688 343.988281 265.816406 343.285156 261.109375 342.8125 C 252.238281 341.238281 245.457031 332.554688 244.039062 323.972656 C 243.699219 317.640625 244.167969 311.289062 246.121094 305.230469 C 247.675781 298.179688 249.621094 290.742188 252.761719 284.207031 C 255.589844 278.125 261.222656 273.34375 267.378906 270.824219 C 274.175781 267.839844 281.097656 267.875 288.375 268.128906 Z M 288.375 268.128906 " clip-rule="nonzero"/></clipPath><clipPath id="ff3e6ae1bc"><path d="M 260 282 L 298 282 L 298 328 L 260 328 Z M 260 282 " clip-rule="nonzero"/></clipPath><clipPath id="bbdf0d40a0"><path d="M 261.039062 281.039062 L 298.761719 282.65625 L 296.726562 330.207031 L 259 328.59375 Z M 261.039062 281.039062 " clip-rule="nonzero"/></clipPath><clipPath id="9f2cc4395c"><path d="M 278.941406 282.476562 C 284.070312 282.679688 289.261719 282.734375 294.359375 283.246094 C 296.570312 283.640625 297.847656 284.636719 297.570312 287 C 295.855469 297.839844 292.4375 308.445312 290.085938 319.171875 C 289.492188 321.015625 289.585938 323.414062 287.640625 324.417969 C 284.683594 326.035156 280.949219 326.339844 277.691406 327.207031 C 270.933594 328.878906 263.652344 324.621094 261.53125 318.035156 C 259.769531 313.664062 261.710938 309.308594 262.804688 305.042969 C 263.96875 300.207031 265.03125 295.09375 266.898438 290.464844 C 268.996094 286.105469 273.910156 282.195312 278.941406 282.476562 Z M 278.941406 282.476562 " clip-rule="nonzero"/></clipPath><clipPath id="c48d7fd20e"><path d="M 190 280 L 223 280 L 223 297 L 190 297 Z M 190 280 " clip-rule="nonzero"/></clipPath><clipPath id="ceee21670d"><path d="M 190.402344 278.539062 L 223.292969 279.945312 L 222.574219 296.667969 L 189.6875 295.257812 Z M 190.402344 278.539062 " clip-rule="nonzero"/></clipPath><clipPath id="4cf514301c"><path d="M 208.585938 280.628906 C 215.144531 279.648438 221.65625 284.445312 222.113281 291.183594 C 222.183594 293.191406 222.496094 296.5 219.566406 296.347656 C 209.851562 295.949219 200.101562 295.609375 190.394531 295.085938 C 190.363281 289.949219 191.847656 286.503906 195.886719 283.351562 C 199.726562 280.191406 204.007812 281.351562 208.585938 280.628906 Z M 208.585938 280.628906 " clip-rule="nonzero"/></clipPath><clipPath id="1ce8911dee"><path d="M 429 312 L 460 312 L 460 331 L 429 331 Z M 429 312 " clip-rule="nonzero"/></clipPath><clipPath id="d12059d4b2"><path d="M 428.339844 311.765625 L 460.261719 313.132812 L 459.457031 331.941406 L 427.535156 330.574219 Z M 428.339844 311.765625 " clip-rule="nonzero"/></clipPath><clipPath id="9437bc0d1e"><path d="M 441.492188 312.550781 C 447.507812 312.835938 453.53125 312.96875 459.542969 313.390625 C 459.535156 318.285156 457.515625 322.492188 456.757812 327.25 C 451.097656 328.867188 445.855469 330.5625 439.875 329.9375 C 436.800781 329.515625 433.65625 330.488281 431.550781 327.769531 C 430.265625 326.105469 428.328125 323.871094 429.4375 321.660156 C 430.328125 319.226562 431.34375 316.078125 433.515625 314.496094 C 435.867188 313.054688 438.753906 312.394531 441.492188 312.550781 Z M 441.492188 312.550781 " clip-rule="nonzero"/></clipPath></defs><rect x="-61.2" width="734.4" fill="#ffffff" y="-61.2" height="734.399999" fill-opacity="1"/><rect x="-61.2" width="734.4" fill="#211f60" y="-61.2" height="734.399999" fill-opacity="1"/><g clip-path="url(#edd34a3dc2)"><g clip-path="url(#4d79f668f6)"><g clip-path="url(#08e58d1ddf)"><path fill="#56aeff" d="M 51.082031 228.070312 L 566.648438 250.152344 L 560.917969 383.929688 L 45.351562 361.847656 Z M 51.082031 228.070312 " fill-opacity="1" fill-rule="nonzero"/></g></g></g><g clip-path="url(#a9bbf7881d)"><g clip-path="url(#2f1b7665c4)"><g clip-path="url(#19905ee501)"><path fill="#56aeff" d="M 51.082031 228.070312 L 566.648438 250.152344 L 560.917969 383.929688 L 45.351562 361.847656 Z M 51.082031 228.070312 " fill-opacity="1" fill-rule="nonzero"/></g></g></g><g clip-path="url(#5c71089854)"><g clip-path="url(#601e77a47c)"><g clip-path="url(#7ae98fdf5d)"><path fill="#56aeff" d="M 51.082031 228.070312 L 566.648438 250.152344 L 560.917969 383.929688 L 45.351562 361.847656 Z M 51.082031 228.070312 " fill-opacity="1" fill-rule="nonzero"/></g></g></g><g clip-path="url(#dd798b621a)"><g clip-path="url(#7c16003c73)"><g clip-path="url(#76bb80b348)"><path fill="#56aeff" d="M 51.082031 228.070312 L 566.648438 250.152344 L 560.917969 383.929688 L 45.351562 361.847656 Z M 51.082031 228.070312 " fill-opacity="1" fill-rule="nonzero"/></g></g></g><g clip-path="url(#aea92d854a)"><g clip-path="url(#3c31401d2a)"><g clip-path="url(#2dddcc4b39)"><path fill="#56aeff" d="M 51.082031 228.070312 L 566.648438 250.152344 L 560.917969 383.929688 L 45.351562 361.847656 Z M 51.082031 228.070312 " fill-opacity="1" fill-rule="nonzero"/></g></g></g><g clip-path="url(#b98236d7c1)"><g clip-path="url(#adf9e5618f)"><g clip-path="url(#dd6ecb8826)"><path fill="#56aeff" d="M 51.082031 228.070312 L 566.648438 250.152344 L 560.917969 383.929688 L 45.351562 361.847656 Z M 51.082031 228.070312 " fill-opacity="1" fill-rule="nonzero"/></g></g></g><g clip-path="url(#7177b6e0bf)"><g clip-path="url(#b91bb86c63)"><g clip-path="url(#0df96ac07e)"><path fill="#56aeff" d="M 51.082031 228.070312 L 566.648438 250.152344 L 560.917969 383.929688 L 45.351562 361.847656 Z M 51.082031 228.070312 " fill-opacity="1" fill-rule="nonzero"/></g></g></g><g clip-path="url(#8bc860dee4)"><g clip-path="url(#84a5483877)"><g clip-path="url(#d3d9cc3042)"><path fill="#56aeff" d="M 51.082031 228.070312 L 566.648438 250.152344 L 560.917969 383.929688 L 45.351562 361.847656 Z M 51.082031 228.070312 " fill-opacity="1" fill-rule="nonzero"/></g></g></g><g clip-path="url(#d24e12d023)"><g clip-path="url(#e705e05cfb)"><g clip-path="url(#6970dfeae4)"><path fill="#56aeff" d="M 51.082031 228.070312 L 566.648438 250.152344 L 560.917969 383.929688 L 45.351562 361.847656 Z M 51.082031 228.070312 " fill-opacity="1" fill-rule="nonzero"/></g></g></g><g clip-path="url(#ff3e6ae1bc)"><g clip-path="url(#bbdf0d40a0)"><g clip-path="url(#9f2cc4395c)"><path fill="#211f60" d="M 51.082031 228.070312 L 566.648438 250.152344 L 560.917969 383.929688 L 45.351562 361.847656 Z M 51.082031 228.070312 " fill-opacity="1" fill-rule="nonzero"/></g></g></g><g clip-path="url(#c48d7fd20e)"><g clip-path="url(#ceee21670d)"><g clip-path="url(#4cf514301c)"><path fill="#211f60" d="M 51.082031 228.070312 L 566.648438 250.152344 L 560.917969 383.929688 L 45.351562 361.847656 Z M 51.082031 228.070312 " fill-opacity="1" fill-rule="nonzero"/></g></g></g><g clip-path="url(#1ce8911dee)"><g clip-path="url(#d12059d4b2)"><g clip-path="url(#9437bc0d1e)"><path fill="#211f60" d="M 51.082031 228.070312 L 566.648438 250.152344 L 560.917969 383.929688 L 45.351562 361.847656 Z M 51.082031 228.070312 " fill-opacity="1" fill-rule="nonzero"/></g></g></g></svg>