<svg xmlns="http://www.w3.org/2000/svg" xmlns:xlink="http://www.w3.org/1999/xlink" width="816" zoomAndPan="magnify" viewBox="0 0 612 611.999999" height="816" preserveAspectRatio="xMidYMid meet" version="1.0"><defs><clipPath id="eac89569fc"><path d="M 468 248 L 539 248 L 539 337 L 468 337 Z M 468 248 " clip-rule="nonzero"/></clipPath><clipPath id="72caaddb93"><path d="M 471.484375 246.546875 L 540.789062 249.515625 L 536.945312 339.273438 L 467.640625 336.304688 Z M 471.484375 246.546875 " clip-rule="nonzero"/></clipPath><clipPath id="5f1e0ea6b3"><path d="M 485.78125 248.246094 C 491.402344 248.59375 498.558594 247.828125 503.558594 250.644531 C 503.867188 253.355469 502.570312 256.390625 501.914062 259.023438 C 500.816406 263.464844 498.433594 266.761719 499.992188 271.488281 C 502.410156 269.96875 504.785156 268.085938 507.433594 267.007812 C 510.847656 265.871094 514.855469 266.441406 518.441406 266.515625 C 522.988281 266.78125 527.222656 266.4375 531.417969 268.53125 C 534.929688 270.097656 537.261719 273.234375 538.617188 276.738281 C 539.425781 281.339844 538.632812 285.714844 537.144531 290.074219 C 535.929688 294.75 535.289062 299.539062 533.789062 304.160156 C 531.300781 313.269531 529.679688 322.628906 527.070312 331.714844 C 527.96875 333.398438 528.859375 335.101562 529.683594 336.828125 C 523.992188 336.898438 517.566406 337.460938 512.160156 335.4375 C 512.007812 328.585938 514.742188 322.941406 516.195312 316.414062 C 517.46875 310.832031 519.324219 305.390625 520.53125 299.789062 C 521.632812 294.683594 523.578125 290.214844 523.390625 284.855469 C 523.71875 282.386719 521.050781 280.046875 518.730469 279.902344 C 513.992188 279.519531 509.214844 279.457031 504.460938 279.265625 C 501.457031 279.089844 498.253906 280.085938 496.34375 282.503906 C 495.359375 284.039062 495.050781 286.097656 494.609375 287.84375 C 491.175781 301.710938 487.441406 315.449219 484.316406 329.410156 C 483.960938 331.648438 484.109375 334.015625 484.085938 336.273438 C 479.027344 335.898438 473.320312 336.515625 468.503906 334.804688 C 468.652344 332.371094 468.703125 329.773438 469.230469 327.402344 C 472.550781 315.398438 475.515625 303.285156 478.359375 291.164062 C 481.242188 280.636719 483.046875 269.921875 485.988281 259.402344 C 487.050781 255.5625 486.882812 252.046875 485.78125 248.246094 Z M 485.78125 248.246094 " clip-rule="nonzero"/></clipPath><clipPath id="0a3752244f"><path d="M 372 245 L 408 245 L 408 336 L 372 336 Z M 372 245 " clip-rule="nonzero"/></clipPath><clipPath id="dfc131ad75"><path d="M 375.425781 244.835938 L 409.1875 246.28125 L 405.300781 337 L 371.539062 335.554688 Z M 375.425781 244.835938 " clip-rule="nonzero"/></clipPath><clipPath id="c20fd1cc41"><path d="M 389.054688 245.863281 C 395.136719 246.035156 401.242188 246.316406 407.3125 246.789062 C 407.65625 248.921875 408.316406 250.75 407.644531 252.917969 C 403.453125 267.839844 399.726562 282.925781 395.984375 297.972656 C 393.03125 308.503906 390.992188 319.289062 387.722656 329.707031 C 388.894531 331.289062 390.046875 332.878906 391.171875 334.484375 C 386.382812 335.703125 381.714844 335.710938 376.828125 335.097656 C 375.378906 334.832031 373.71875 334.28125 372.679688 333.1875 C 371.953125 327.027344 374.902344 321.003906 376.332031 314.882812 C 378.078125 306.964844 380.902344 299.390625 382.242188 291.375 C 384.710938 281.167969 386.761719 270.917969 389.191406 260.710938 C 389.839844 257.828125 391.164062 254.796875 391.167969 251.832031 C 390.792969 249.792969 389.691406 247.839844 389.054688 245.863281 Z M 389.054688 245.863281 " clip-rule="nonzero"/></clipPath><clipPath id="9497c01304"><path d="M 331 244 L 350 244 L 350 260 L 331 260 Z M 331 244 " clip-rule="nonzero"/></clipPath><clipPath id="6e81a9cc3a"><path d="M 330.980469 243.414062 L 350.527344 244.25 L 349.828125 260.570312 L 330.28125 259.734375 Z M 330.980469 243.414062 " clip-rule="nonzero"/></clipPath><clipPath id="d314384963"><path d="M 338.671875 244.488281 C 342.699219 244.617188 346.3125 244.085938 349.835938 246.429688 C 349.566406 250.398438 349.308594 254.195312 346.683594 257.421875 C 344.808594 259.890625 340.683594 259.515625 337.964844 259.363281 C 335.058594 259.238281 332.476562 258.167969 331.488281 255.242188 C 331.417969 252.113281 332.492188 248.863281 333.667969 245.992188 C 335.019531 244.929688 336.980469 244.523438 338.671875 244.488281 Z M 338.671875 244.488281 " clip-rule="nonzero"/></clipPath><clipPath id="0e115d8ee7"><path d="M 342 245 L 379 245 L 379 334 L 342 334 Z M 342 245 " clip-rule="nonzero"/></clipPath><clipPath id="0164a1c01a"><path d="M 345.175781 244.503906 L 378.9375 245.949219 L 375.074219 336.1875 L 341.308594 334.742188 Z M 345.175781 244.503906 " clip-rule="nonzero"/></clipPath><clipPath id="175d5fd1de"><path d="M 359.15625 245.199219 C 365.53125 245.453125 371.910156 245.753906 378.273438 246.070312 C 378.222656 250.144531 378.199219 254.042969 376.835938 257.941406 C 373.632812 267.890625 372.191406 278.238281 369.058594 288.191406 C 365.746094 300.28125 363.359375 312.53125 359.851562 324.5625 C 358.949219 327.996094 360.472656 330.445312 361.558594 333.5625 C 357.898438 333.398438 354.441406 333.472656 350.800781 333.824219 C 348.234375 333.722656 345.644531 334.519531 343.929688 332.097656 C 342.027344 330.214844 342.488281 328.199219 343.109375 325.882812 C 346.753906 313.824219 349.652344 301.453125 352.914062 289.28125 C 355.632812 276.921875 358.378906 264.621094 361.519531 252.359375 C 362.460938 250.003906 359.945312 247.351562 359.15625 245.199219 Z M 359.15625 245.199219 " clip-rule="nonzero"/></clipPath><clipPath id="54efeb6ac2"><path d="M 72 239 L 185 239 L 185 331 L 72 331 Z M 72 239 " clip-rule="nonzero"/></clipPath><clipPath id="505c3f1fd8"><path d="M 75.835938 235.851562 L 185.121094 240.53125 L 181.152344 333.171875 L 71.867188 328.488281 Z M 75.835938 235.851562 " clip-rule="nonzero"/></clipPath><clipPath id="655b576179"><path d="M 162.21875 240.546875 C 164.6875 240.472656 167.167969 240.742188 169.632812 240.820312 C 174.820312 241.113281 179.585938 240.597656 184.378906 243.019531 C 184.34375 248.449219 182.433594 253.121094 181.210938 258.347656 C 177.4375 274.132812 173.476562 290.320312 169.585938 306.082031 C 168.199219 311.890625 165.78125 317.851562 165.515625 323.8125 C 165.148438 325.960938 167.566406 327.042969 168.863281 328.398438 C 168.90625 328.804688 168.945312 329.214844 168.980469 329.617188 C 163.585938 330.660156 157.855469 330.316406 152.394531 329.9375 C 150.40625 329.863281 148.925781 328.890625 147.855469 327.261719 C 147.585938 326.242188 147.851562 325.042969 148.070312 324.046875 C 151.054688 311.582031 154.363281 299.207031 157.433594 286.765625 C 158.039062 284.921875 157.144531 283.726562 156.429688 282.09375 C 150.007812 290.054688 144.480469 298.800781 138.660156 307.199219 C 134.25 313.117188 130.203125 319.28125 126.378906 325.601562 C 125.277344 327.199219 124.273438 329.179688 122.0625 329.246094 C 117.921875 329.316406 113.761719 328.90625 109.628906 328.773438 C 107.199219 320.195312 106.421875 311.347656 104.289062 302.707031 C 102.382812 295.046875 100.96875 287.304688 99.117188 279.636719 C 98.246094 279.34375 97.378906 279.046875 96.519531 278.753906 C 94.558594 283.511719 94.140625 288.558594 92.550781 293.417969 C 90.824219 299.261719 89.765625 305.273438 87.957031 311.097656 C 86.910156 314.925781 86.101562 319.042969 86.277344 323.019531 C 87.148438 325 88.5 326.703125 89.257812 328.757812 C 84.058594 328.933594 78.828125 328.558594 73.628906 328.363281 C 73.097656 326.84375 72.015625 325.089844 72.175781 323.464844 C 76.417969 306.269531 80.625 290.582031 84.792969 273.558594 C 85.722656 268.230469 87.070312 263.007812 88.273438 257.742188 C 89.316406 253.609375 90.746094 249.078125 90.679688 244.800781 C 89.558594 242.742188 87.679688 241.039062 86.21875 239.207031 C 92.367188 239.113281 98.507812 239.769531 104.664062 239.878906 C 106.6875 239.808594 108.066406 241.128906 108.800781 242.898438 C 109.9375 245.707031 110.484375 248.898438 110.933594 251.894531 C 113.441406 266.167969 116.484375 280.320312 118.917969 294.609375 C 119.878906 298.53125 120.039062 303.113281 121.960938 306.6875 C 125.082031 307.382812 125.828125 304.789062 127.433594 302.800781 C 131.671875 296.355469 136.472656 290.300781 140.582031 283.773438 C 145.390625 276.304688 150.601562 269.121094 155.132812 261.46875 C 157.546875 257.273438 160.558594 253.492188 163.136719 249.410156 C 164.875 246.082031 163.0625 243.726562 162.21875 240.546875 Z M 162.21875 240.546875 " clip-rule="nonzero"/></clipPath><clipPath id="21868b9b33"><path d="M 402 264 L 469 264 L 469 337 L 402 337 Z M 402 264 " clip-rule="nonzero"/></clipPath><clipPath id="1b45870f45"><path d="M 404.027344 262.890625 L 469.773438 265.707031 L 466.648438 338.667969 L 400.902344 335.851562 Z M 404.027344 262.890625 " clip-rule="nonzero"/></clipPath><clipPath id="5dbc137718"><path d="M 416.878906 264.746094 C 422.542969 264.535156 428.230469 265.386719 433.921875 265.128906 C 440.210938 264.714844 446.324219 265.367188 452.625 265.476562 C 455.664062 265.554688 458.457031 265.636719 461.0625 267.40625 C 465.308594 270.089844 467.882812 274.285156 468.496094 279.253906 C 468.695312 282.09375 467.691406 284.359375 466.925781 287.023438 C 464.847656 293.613281 463.230469 300.363281 461.84375 307.125 C 460.128906 314.332031 458.203125 321.515625 456.511719 328.71875 C 455.835938 331.433594 457.75 333.144531 458.953125 335.367188 C 453.09375 337.867188 445.5 336.214844 439.703125 334.152344 C 440.515625 330.507812 440.898438 326.792969 440.96875 323.066406 C 436.199219 325.078125 435.207031 331.839844 430.21875 334.199219 C 424.960938 336.34375 418.699219 336.375 413.210938 335.234375 C 407.824219 334.363281 403.652344 329.480469 402.683594 324.277344 C 401.910156 316.800781 404.109375 310.359375 406.515625 303.445312 C 408.292969 298.738281 411.300781 294.628906 416.085938 292.679688 C 417.941406 292.117188 420.101562 292.390625 422.027344 292.402344 C 429.175781 292.824219 436.339844 292.730469 443.480469 293.355469 C 448.070312 294.265625 451.464844 289.398438 451.457031 285.257812 C 451.984375 282.296875 449.871094 279.019531 446.699219 279.085938 C 440.777344 278.644531 434.832031 278.648438 428.90625 278.351562 C 425.128906 278.136719 420.632812 278.34375 417.097656 276.902344 C 416.398438 275.980469 416.148438 275.195312 416.179688 274.039062 C 416.222656 270.953125 416.402344 267.800781 416.878906 264.746094 Z M 416.878906 264.746094 " clip-rule="nonzero"/></clipPath><clipPath id="b7cc2f4f85"><path d="M 314 262 L 346 262 L 346 335 L 314 335 Z M 314 262 " clip-rule="nonzero"/></clipPath><clipPath id="95b97b95a1"><path d="M 315.984375 261.042969 L 347.078125 262.375 L 343.976562 334.855469 L 312.878906 333.523438 Z M 315.984375 261.042969 " clip-rule="nonzero"/></clipPath><clipPath id="3c2bb30afa"><path d="M 326.722656 262.027344 C 331.851562 262.210938 337.152344 262.097656 342.207031 262.992188 C 344.074219 263.3125 346.1875 264.25 345.941406 266.480469 C 344.867188 273.425781 342.617188 280.273438 340.875 287.074219 C 339.410156 293.179688 337.796875 299.265625 336.28125 305.359375 C 334.78125 312.285156 331.8125 319.425781 331.6875 326.53125 C 331.535156 329.269531 332.757812 331.429688 333.59375 334.011719 C 328.949219 333.914062 324.265625 333.863281 319.648438 333.378906 C 317.828125 333.054688 315.328125 332.375 314.269531 330.710938 C 313.8125 328.679688 314.371094 326.308594 314.871094 324.324219 C 317.21875 315.496094 319.730469 306.734375 321.699219 297.808594 C 323.046875 292.753906 324.542969 287.71875 325.652344 282.59375 C 326.566406 278.082031 328.335938 274.027344 328.359375 269.335938 C 328.664062 266.578125 327.394531 264.582031 326.722656 262.027344 Z M 326.722656 262.027344 " clip-rule="nonzero"/></clipPath><clipPath id="1ccdb6210e"><path d="M 180 259 L 244 259 L 244 331 L 180 331 Z M 180 259 " clip-rule="nonzero"/></clipPath><clipPath id="d11a0e2ab3"><path d="M 180.828125 257.660156 L 246.578125 260.476562 L 243.472656 332.953125 L 177.722656 330.140625 Z M 180.828125 257.660156 " clip-rule="nonzero"/></clipPath><clipPath id="2ee15701bd"><path d="M 215.058594 259.71875 C 222.03125 259.6875 230.574219 260.828125 235.804688 265.949219 C 241.578125 271.121094 245.277344 279.503906 243.398438 287.242188 C 242.609375 290.664062 241.769531 294.679688 238.71875 296.84375 C 236.046875 298.59375 232.742188 299.632812 229.53125 299.347656 C 218.789062 298.8125 208.039062 298.65625 197.304688 298 C 195.816406 300.09375 194.503906 301.613281 195.152344 304.355469 C 196.289062 308.1875 199.457031 313.230469 203.878906 313.472656 C 209.757812 314.0625 215.695312 313.898438 221.589844 314.285156 C 227.234375 314.765625 232.691406 312.425781 237.527344 309.75 C 235.675781 314.699219 234.875 320.082031 233.367188 325.125 C 233.066406 326.34375 232.222656 326.984375 231.113281 327.453125 C 228.089844 328.675781 224.734375 329.269531 221.550781 329.988281 C 215.773438 331.566406 209.140625 330.535156 203.128906 330.417969 C 197.65625 330.746094 192.613281 326.871094 188.679688 323.460938 C 183.390625 318.703125 181.667969 312.34375 180.328125 305.597656 C 179.515625 301.929688 181.273438 297.679688 181.917969 294.011719 C 182.792969 288.804688 184.25 283.703125 185.984375 278.730469 C 188.171875 272.742188 192.546875 268.078125 197.722656 264.496094 C 202.570312 261.125 209.296875 260.210938 215.058594 259.71875 Z M 215.058594 259.71875 " clip-rule="nonzero"/></clipPath><clipPath id="55dfc81e04"><path d="M 242 261 L 315 261 L 315 353 L 242 353 Z M 242 261 " clip-rule="nonzero"/></clipPath><clipPath id="886a177b7f"><path d="M 245.730469 259.476562 L 316.808594 262.523438 L 312.882812 354.199219 L 241.800781 351.15625 Z M 245.730469 259.476562 " clip-rule="nonzero"/></clipPath><clipPath id="b8d8727c3d"><path d="M 289.8125 261.894531 C 295.382812 262.171875 301.136719 262.113281 306.621094 263.152344 C 310.128906 263.78125 313.28125 265.609375 314.667969 269.035156 C 315.503906 274.652344 314.269531 279.558594 312.796875 284.890625 C 311.226562 293.03125 309.015625 300.96875 306.726562 308.929688 C 304.269531 317.46875 302.847656 326.542969 299.554688 334.800781 C 295.65625 344.375 286.511719 350.125 276.640625 351.972656 C 272.058594 352.328125 267.378906 351.761719 262.789062 351.683594 C 256.71875 351.628906 250.980469 349.441406 245.511719 346.996094 C 244.441406 346.398438 242.492188 345.53125 242.949219 344.003906 C 243.675781 339.929688 245.023438 335.972656 245.828125 331.902344 C 250.578125 334.695312 255.234375 336.996094 260.746094 337.839844 C 267.90625 338.597656 275.292969 339.371094 281.613281 335.214844 C 285.730469 332.605469 286.847656 327.78125 288.148438 323.402344 C 288.75 321.371094 288.3125 319.519531 287.980469 317.492188 C 282.949219 320.207031 282.371094 325.597656 278.109375 328.902344 C 274.363281 331.574219 269.089844 330.929688 264.765625 330.496094 C 256.617188 329.050781 250.386719 321.074219 249.085938 313.191406 C 248.777344 307.375 249.203125 301.542969 251 295.972656 C 252.425781 289.5 254.214844 282.667969 257.097656 276.664062 C 259.699219 271.078125 264.871094 266.6875 270.527344 264.375 C 276.769531 261.632812 283.125 261.664062 289.8125 261.894531 Z M 289.8125 261.894531 " clip-rule="nonzero"/></clipPath><clipPath id="4c9d8d313c"><path d="M 264 275 L 299 275 L 299 317 L 264 317 Z M 264 275 " clip-rule="nonzero"/></clipPath><clipPath id="5142eed58a"><path d="M 264.699219 273.753906 L 299.351562 275.238281 L 297.480469 318.917969 L 262.828125 317.433594 Z M 264.699219 273.753906 " clip-rule="nonzero"/></clipPath><clipPath id="35ec46fce5"><path d="M 281.144531 275.078125 C 285.855469 275.261719 290.625 275.3125 295.308594 275.78125 C 297.339844 276.144531 298.511719 277.058594 298.257812 279.230469 C 296.683594 289.1875 293.539062 298.925781 291.382812 308.78125 C 290.839844 310.476562 290.921875 312.675781 289.136719 313.597656 C 286.421875 315.085938 282.988281 315.363281 280 316.164062 C 273.789062 317.695312 267.101562 313.785156 265.152344 307.734375 C 263.535156 303.722656 265.316406 299.722656 266.320312 295.800781 C 267.394531 291.359375 268.371094 286.664062 270.082031 282.410156 C 272.007812 278.40625 276.527344 274.816406 281.144531 275.078125 Z M 281.144531 275.078125 " clip-rule="nonzero"/></clipPath><clipPath id="d85811a644"><path d="M 199 273 L 229 273 L 229 288 L 199 288 Z M 199 273 " clip-rule="nonzero"/></clipPath><clipPath id="76b2484c8f"><path d="M 199.820312 271.457031 L 230.027344 272.75 L 229.371094 288.109375 L 199.160156 286.816406 Z M 199.820312 271.457031 " clip-rule="nonzero"/></clipPath><clipPath id="b4eecd85c3"><path d="M 216.523438 273.378906 C 222.542969 272.476562 228.527344 276.882812 228.945312 283.070312 C 229.007812 284.917969 229.296875 287.957031 226.605469 287.816406 C 217.683594 287.449219 208.730469 287.136719 199.8125 286.65625 C 199.78125 281.9375 201.144531 278.773438 204.859375 275.878906 C 208.382812 272.976562 212.316406 274.042969 216.523438 273.378906 Z M 216.523438 273.378906 " clip-rule="nonzero"/></clipPath><clipPath id="755c79a8d9"><path d="M 419 302 L 448 302 L 448 319 L 419 319 Z M 419 302 " clip-rule="nonzero"/></clipPath><clipPath id="b554018598"><path d="M 418.375 301.976562 L 447.695312 303.230469 L 446.953125 320.511719 L 417.632812 319.257812 Z M 418.375 301.976562 " clip-rule="nonzero"/></clipPath><clipPath id="b36cb51265"><path d="M 430.453125 302.699219 C 435.980469 302.960938 441.511719 303.082031 447.035156 303.472656 C 447.027344 307.96875 445.171875 311.832031 444.476562 316.199219 C 439.277344 317.6875 434.464844 319.246094 428.96875 318.671875 C 426.144531 318.28125 423.257812 319.175781 421.324219 316.679688 C 420.144531 315.148438 418.363281 313.097656 419.382812 311.066406 C 420.199219 308.832031 421.132812 305.941406 423.128906 304.484375 C 425.285156 303.164062 427.941406 302.554688 430.453125 302.699219 Z M 430.453125 302.699219 " clip-rule="nonzero"/></clipPath></defs><g clip-path="url(#eac89569fc)"><g clip-path="url(#72caaddb93)"><g clip-path="url(#5f1e0ea6b3)"><path fill="#211f60" d="M 71.847656 225.101562 L 545.417969 245.386719 L 540.152344 368.261719 L 66.582031 347.980469 Z M 71.847656 225.101562 " fill-opacity="1" fill-rule="nonzero"/></g></g></g><g clip-path="url(#0a3752244f)"><g clip-path="url(#dfc131ad75)"><g clip-path="url(#c20fd1cc41)"><path fill="#211f60" d="M 71.847656 225.101562 L 545.417969 245.386719 L 540.152344 368.261719 L 66.582031 347.980469 Z M 71.847656 225.101562 " fill-opacity="1" fill-rule="nonzero"/></g></g></g><g clip-path="url(#9497c01304)"><g clip-path="url(#6e81a9cc3a)"><g clip-path="url(#d314384963)"><path fill="#211f60" d="M 71.847656 225.101562 L 545.417969 245.386719 L 540.152344 368.261719 L 66.582031 347.980469 Z M 71.847656 225.101562 " fill-opacity="1" fill-rule="nonzero"/></g></g></g><g clip-path="url(#0e115d8ee7)"><g clip-path="url(#0164a1c01a)"><g clip-path="url(#175d5fd1de)"><path fill="#211f60" d="M 71.847656 225.101562 L 545.417969 245.386719 L 540.152344 368.261719 L 66.582031 347.980469 Z M 71.847656 225.101562 " fill-opacity="1" fill-rule="nonzero"/></g></g></g><g clip-path="url(#54efeb6ac2)"><g clip-path="url(#505c3f1fd8)"><g clip-path="url(#655b576179)"><path fill="#211f60" d="M 71.847656 225.101562 L 545.417969 245.386719 L 540.152344 368.261719 L 66.582031 347.980469 Z M 71.847656 225.101562 " fill-opacity="1" fill-rule="nonzero"/></g></g></g><g clip-path="url(#21868b9b33)"><g clip-path="url(#1b45870f45)"><g clip-path="url(#5dbc137718)"><path fill="#211f60" d="M 71.847656 225.101562 L 545.417969 245.386719 L 540.152344 368.261719 L 66.582031 347.980469 Z M 71.847656 225.101562 " fill-opacity="1" fill-rule="nonzero"/></g></g></g><g clip-path="url(#b7cc2f4f85)"><g clip-path="url(#95b97b95a1)"><g clip-path="url(#3c2bb30afa)"><path fill="#211f60" d="M 71.847656 225.101562 L 545.417969 245.386719 L 540.152344 368.261719 L 66.582031 347.980469 Z M 71.847656 225.101562 " fill-opacity="1" fill-rule="nonzero"/></g></g></g><g clip-path="url(#1ccdb6210e)"><g clip-path="url(#d11a0e2ab3)"><g clip-path="url(#2ee15701bd)"><path fill="#211f60" d="M 71.847656 225.101562 L 545.417969 245.386719 L 540.152344 368.261719 L 66.582031 347.980469 Z M 71.847656 225.101562 " fill-opacity="1" fill-rule="nonzero"/></g></g></g><g clip-path="url(#55dfc81e04)"><g clip-path="url(#886a177b7f)"><g clip-path="url(#b8d8727c3d)"><path fill="#211f60" d="M 71.847656 225.101562 L 545.417969 245.386719 L 540.152344 368.261719 L 66.582031 347.980469 Z M 71.847656 225.101562 " fill-opacity="1" fill-rule="nonzero"/></g></g></g><g clip-path="url(#4c9d8d313c)"><g clip-path="url(#5142eed58a)"><g clip-path="url(#35ec46fce5)"><path fill="#ffffff" d="M 71.847656 225.101562 L 545.417969 245.386719 L 540.152344 368.261719 L 66.582031 347.980469 Z M 71.847656 225.101562 " fill-opacity="1" fill-rule="nonzero"/></g></g></g><g clip-path="url(#d85811a644)"><g clip-path="url(#76b2484c8f)"><g clip-path="url(#b4eecd85c3)"><path fill="#ffffff" d="M 71.847656 225.101562 L 545.417969 245.386719 L 540.152344 368.261719 L 66.582031 347.980469 Z M 71.847656 225.101562 " fill-opacity="1" fill-rule="nonzero"/></g></g></g><g clip-path="url(#755c79a8d9)"><g clip-path="url(#b554018598)"><g clip-path="url(#b36cb51265)"><path fill="#ffffff" d="M 71.847656 225.101562 L 545.417969 245.386719 L 540.152344 368.261719 L 66.582031 347.980469 Z M 71.847656 225.101562 " fill-opacity="1" fill-rule="nonzero"/></g></g></g></svg>